<svg width="22" height="22" viewBox="0 0 22 22" fill="none" xmlns="http://www.w3.org/2000/svg">
<path d="M4.58366 19.25C4.32394 19.25 4.10638 19.162 3.93099 18.986C3.7556 18.81 3.6676 18.5924 3.66699 18.3333V17.4167C2.9031 17.4167 2.2538 17.1493 1.71908 16.6146C1.18435 16.0799 0.916992 15.4306 0.916992 14.6667V10.0833C0.916992 9.57917 1.09666 9.14772 1.45599 8.789C1.81533 8.43028 2.24677 8.25061 2.75033 8.25C3.25388 8.24939 3.68563 8.42906 4.04558 8.789C4.40552 9.14895 4.58488 9.58039 4.58366 10.0833V13.75H17.417V10.0833C17.417 9.57917 17.5967 9.14772 17.956 8.789C18.3153 8.43028 18.7468 8.25061 19.2503 8.25C19.7539 8.24939 20.1856 8.42906 20.5456 8.789C20.9055 9.14895 21.0849 9.58039 21.0837 10.0833V14.6667C21.0837 15.4306 20.8163 16.0799 20.2816 16.6146C19.7469 17.1493 19.0975 17.4167 18.3337 17.4167V18.3333C18.3337 18.5931 18.2457 18.8109 18.0697 18.9869C17.8937 19.1629 17.6761 19.2506 17.417 19.25C17.1579 19.2494 16.9403 19.1614 16.7643 18.986C16.5883 18.8106 16.5003 18.5931 16.5003 18.3333V17.4167H5.50033V18.3333C5.50033 18.5931 5.41233 18.8109 5.23633 18.9869C5.06033 19.1629 4.84277 19.2506 4.58366 19.25ZM6.41699 11.9167V10.0833C6.41699 9.24306 6.16124 8.49047 5.64974 7.82558C5.13824 7.1607 4.47733 6.69106 3.66699 6.41667V5.5C3.66699 4.73611 3.93435 4.08681 4.46908 3.55208C5.0038 3.01736 5.6531 2.75 6.41699 2.75H15.5837C16.3475 2.75 16.9969 3.01736 17.5316 3.55208C18.0663 4.08681 18.3337 4.73611 18.3337 5.5V6.41667C17.5087 6.63056 16.8441 7.07758 16.3399 7.75775C15.8357 8.43792 15.5837 9.21311 15.5837 10.0833V11.9167H6.41699Z" fill="#CFCFCF"/>
</svg>


