<svg width="12" height="21" viewBox="0 0 12 21" fill="none" xmlns="http://www.w3.org/2000/svg">
<path d="M5 10C7.7615 10 10 7.7615 10 5C10 2.2385 7.7615 0 5 0C2.2385 0 0 2.2385 0 5C0 7.7615 2.2385 10 5 10Z" fill="#CFCFCF"/>
<path d="M10.0001 5.60156C10.0071 5.60856 12.3615 8.56923 17.0631 14.4836C17.1428 14.5794 17.1837 14.7016 17.178 14.8261C17.1723 14.9506 17.1202 15.0684 17.0321 15.1566L14.9901 17.1986C14.902 17.2867 14.7841 17.3387 14.6596 17.3444C14.5351 17.3502 14.413 17.3092 14.3171 17.2296L5.91113 10.0006M10.2351 10.2356L11.6496 11.6501" stroke="#CFCFCF" stroke-width="1.5" stroke-linecap="round" stroke-linejoin="round"/>
<path d="M5.5 20.0412C6.45867 18.7922 7.62367 18.1677 8.995 18.1677C11.053 18.1677 13.4815 20.7527 15.553 20.3972C17.625 20.0412 18.218 17.9982 16.943 16.8672" stroke="#CFCFCF" stroke-linecap="round" stroke-linejoin="round"/>
</svg>
