<svg width="22" height="22" viewBox="0 0 22 22" fill="none" xmlns="http://www.w3.org/2000/svg">
<path d="M6.06719 12.4583L1.32344 7.72553C-0.441146 5.94811 -0.441146 3.08445 1.32344 1.31895L9.26727 9.24078L6.06719 12.4583ZM12.0723 12.0733L19.8731 19.8558L18.2598 21.4508L10.4864 13.6774L2.69294 21.4508L1.09702 19.8558L12.0264 8.9282L11.7973 8.67886C11.5877 8.4702 11.4215 8.22221 11.308 7.94912C11.1946 7.67604 11.1362 7.38324 11.1362 7.08753C11.1362 6.79182 11.1946 6.49902 11.308 6.22594C11.4215 5.95285 11.5877 5.70486 11.7973 5.4962L16.7106 0.550781L17.7556 1.5912L14.0981 5.27986L15.1798 6.34411L18.8373 2.66645L19.8914 3.70778L16.2156 7.37445L17.2698 8.46436L20.9639 4.78211L21.9998 5.84636L17.0498 10.7533C16.1789 11.6333 14.7489 11.6333 13.8781 10.7533L13.6306 10.5241L12.0723 12.0733Z" fill="#CFCFCF"/>
</svg>
